<?xml version="1.0" encoding="UTF-8"?>
<!DOCTYPE svg PUBLIC "-//W3C//DTD SVG 1.1//EN" "http://www.w3.org/Graphics/SVG/1.1/DTD/svg11.dtd">
<svg xmlns="http://www.w3.org/2000/svg" version="1.1" width="2703px" height="1100px" style="shape-rendering:geometricPrecision; text-rendering:geometricPrecision; image-rendering:optimizeQuality; fill-rule:evenodd; clip-rule:evenodd" xmlns:xlink="http://www.w3.org/1999/xlink">
<g><path style="opacity:0.907" fill="#fefffe" d="M 978.5,15.5 C 983.303,16.0824 984.803,18.4157 983,22.5C 946.861,59.3065 910.694,96.1399 874.5,133C 771.381,189.557 668.047,245.557 564.5,301C 560.979,302.115 559.146,300.949 559,297.5C 643.892,228.307 729.059,159.474 814.5,91C 869.367,66.0636 924.033,40.8969 978.5,15.5 Z"/></g>
<g><path style="opacity:0.912" fill="#fefffe" d="M 1277.5,16.5 C 1283.02,16.4734 1284.35,18.64 1281.5,23C 1174.67,105.833 1067.83,188.667 961,271.5C 980.986,373.796 955.986,463.13 886,539.5C 810.526,614.407 719.359,646.24 612.5,635C 575.683,629.72 540.683,619.053 507.5,603C 505.112,600.95 503.112,598.616 501.5,596C 503.175,593.315 505.508,591.315 508.5,590C 623.746,527.746 738.746,465.079 853.5,402C 856.657,401.116 859.657,399.95 862.5,398.5C 867.925,401.449 867.591,403.949 861.5,406C 859.5,408 857.5,410 855.5,412C 773.717,473.289 692.383,535.122 611.5,597.5C 694.802,609.834 767.802,588.334 830.5,533C 902.094,461.837 927.594,376.337 907,276.5C 901.683,255.514 894.016,235.514 884,216.5C 883.282,215.549 882.449,215.383 881.5,216C 814.471,252.209 747.471,288.209 680.5,324C 677.107,325.168 674.441,324.334 672.5,321.5C 678.124,316.009 683.791,310.509 689.5,305C 753.129,250.373 816.462,195.373 879.5,140C 959.592,100.299 1039.59,60.2989 1119.5,20C 1126.51,19.3247 1127.85,21.658 1123.5,27C 1057.83,80.8333 992.167,134.667 926.5,188.5C 925.386,189.723 925.219,191.056 926,192.5C 930.224,197.619 933.391,203.285 935.5,209.5C 938.438,208.372 941.438,207.205 944.5,206C 1055.69,142.926 1166.69,79.7596 1277.5,16.5 Z"/></g>
<g><path style="opacity:0.912" fill="#fefefe" d="M 625.5,41.5 C 642.837,41.3334 660.17,41.5001 677.5,42C 699.211,45.1798 720.878,48.5131 742.5,52C 752.387,55.6393 762.387,58.9726 772.5,62C 781.752,66.2895 791.085,70.6228 800.5,75C 803.266,76.4669 805.766,78.3002 808,80.5C 808.667,81.5 808.667,82.5 808,83.5C 804.778,86.388 801.278,88.888 797.5,91C 688.125,147.779 579.125,205.112 470.5,263C 461.838,267.582 453.004,271.748 444,275.5C 441.277,274.792 440.277,273.125 441,270.5C 526.621,207.719 612.121,144.719 697.5,81.5C 603.661,68.2255 524.495,96.2255 460,165.5C 400.254,238.188 381.92,320.521 405,412.5C 410.253,428.995 416.587,444.995 424,460.5C 424.689,461.357 425.522,462.023 426.5,462.5C 493.467,425.192 560.134,387.692 626.5,350C 630.998,348.523 633.165,350.023 633,354.5C 563.676,416.765 494.176,478.931 424.5,541C 341.677,581.689 258.677,622.689 175.5,664C 171.618,664.767 169.452,663.267 169,659.5C 180.926,648.904 193.426,639.071 206.5,630C 264.877,581.955 323.543,534.288 382.5,487C 379.214,480.095 375.381,473.595 371,467.5C 260.335,529.821 149.835,592.321 39.5,655C 35.6178,657.284 31.6178,658.951 27.5,660C 26.6433,659.311 25.9767,658.478 25.5,657.5C 27.6028,653.894 30.2694,650.727 33.5,648C 138.347,567.742 243.014,487.242 347.5,406.5C 347.833,405.167 348.167,403.833 348.5,402.5C 329.859,305.576 352.693,219.909 417,145.5C 473.621,85.2243 543.121,50.5577 625.5,41.5 Z"/></g>
<g><path style="opacity:0.966" fill="#fefffe" d="M 1879.5,322.5 C 1886.06,322.843 1892.56,322.843 1899,322.5C 1900.81,323.078 1902.64,323.578 1904.5,324C 1955.31,375.14 2006.47,425.973 2058,476.5C 2105.83,430 2153,382.833 2199.5,335C 2203.34,331.82 2207.18,328.653 2211,325.5C 2212.61,326.101 2213.94,327.101 2215,328.5C 2215.33,376.833 2215.67,425.167 2216,473.5C 2265.73,423.775 2315.56,373.942 2365.5,324C 2367.8,323.342 2370.13,322.842 2372.5,322.5C 2470.99,323.811 2569.33,323.811 2667.5,322.5C 2670.83,323.047 2674.16,323.547 2677.5,324C 2678.69,325.019 2679.69,326.186 2680.5,327.5C 2678.86,330.304 2677.03,332.971 2675,335.5C 2574.87,435.631 2475.04,535.464 2375.5,635C 2373.36,636.308 2371.36,637.808 2369.5,639.5C 2365.27,636.705 2363.27,632.705 2363.5,627.5C 2363.76,580.599 2363.76,533.766 2363.5,487C 2314.17,486.5 2264.83,486.333 2215.5,486.5C 2215.67,536.501 2215.5,586.501 2215,636.5C 2214.22,638.286 2213.05,639.786 2211.5,641C 2109.25,640.352 2006.92,640.352 1904.5,641C 1903,639.5 1901.5,638 1900,636.5C 1899.67,536.167 1899.33,435.833 1899,335.5C 1797.81,436.694 1696.64,537.86 1595.5,639C 1593.1,639.63 1591.26,638.797 1590,636.5C 1589.55,633.657 1589.05,630.824 1588.5,628C 1588.02,527.481 1588.52,426.981 1590,326.5C 1590.83,325.667 1591.67,324.833 1592.5,324C 1688.33,323.833 1784,323.333 1879.5,322.5 Z"/></g>
<g><path style="opacity:0.911" fill="#fefefe" d="M 749.5,369.5 C 752.473,369.965 753.64,371.632 753,374.5C 664.791,447.711 576.291,520.544 487.5,593C 434.197,616.983 380.864,640.983 327.5,665C 325.231,665.758 323.064,665.591 321,664.5C 320.99,661.537 321.99,658.871 324,656.5C 360.137,618.696 396.637,581.196 433.5,544C 539.035,486.069 644.368,427.902 749.5,369.5 Z"/></g>
<g><path style="opacity:0.802" fill="#fefffe" d="M 2303.5,671.5 C 2308.18,671.334 2312.85,671.501 2317.5,672C 2318.67,673.167 2319.83,674.333 2321,675.5C 2316.74,683.11 2310.91,689.61 2303.5,695C 2318.01,697.513 2326.51,706.013 2329,720.5C 2329.33,707.5 2329.67,694.5 2330,681.5C 2330.83,680.667 2331.67,679.833 2332.5,679C 2337.5,678.333 2342.5,678.333 2347.5,679C 2348.33,679.833 2349.17,680.667 2350,681.5C 2350.2,691.87 2350.86,702.204 2352,712.5C 2355.99,703.574 2362.82,698.074 2372.5,696C 2368.71,693.947 2367.54,690.781 2369,686.5C 2371.83,683.671 2373.83,680.337 2375,676.5C 2376.54,674.622 2378.38,673.122 2380.5,672C 2385.17,671.333 2389.83,671.333 2394.5,672C 2396.64,673.422 2397.8,675.255 2398,677.5C 2392.83,684 2387,689.833 2380.5,695C 2392.72,697.554 2400.89,704.721 2405,716.5C 2411.15,700.054 2422.98,693.22 2440.5,696C 2450.16,698.323 2456.66,704.157 2460,713.5C 2466.64,699.165 2477.81,693.332 2493.5,696C 2503.3,698.643 2510.46,704.476 2515,713.5C 2514.63,698.518 2521.3,693.852 2535,699.5C 2544.56,693.923 2553.89,694.257 2563,700.5C 2575.27,692.712 2586.27,694.045 2596,704.5C 2598.7,710.363 2600.2,716.529 2600.5,723C 2599.77,731.816 2599.27,740.649 2599,749.5C 2598.17,751.667 2596.67,753.167 2594.5,754C 2590.5,754.667 2586.5,754.667 2582.5,754C 2581.67,753.167 2580.83,752.333 2580,751.5C 2578.71,740.263 2578.04,728.93 2578,717.5C 2575.68,712.521 2572.68,712.188 2569,716.5C 2568.96,727.93 2568.29,739.263 2567,750.5C 2560.31,756.129 2553.97,755.796 2548,749.5C 2547.8,737.801 2547.13,726.134 2546,714.5C 2543.08,712.982 2540.74,713.649 2539,716.5C 2537.76,727.442 2537.09,738.442 2537,749.5C 2536.17,751.667 2534.67,753.167 2532.5,754C 2528.5,754.667 2524.5,754.667 2520.5,754C 2519.67,753.167 2518.83,752.333 2518,751.5C 2516.78,746.239 2515.78,740.906 2515,735.5C 2505.8,755.102 2491.3,760.268 2471.5,751C 2466.26,747.592 2462.26,743.092 2459.5,737.5C 2453.44,750.702 2443.11,756.535 2428.5,755C 2415.74,751.574 2407.57,743.408 2404,730.5C 2401.52,731.149 2401.19,732.149 2403,733.5C 2402.97,743.903 2397.8,750.736 2387.5,754C 2370.19,757.9 2358.02,751.734 2351,735.5C 2350.5,738.518 2350.67,741.518 2351.5,744.5C 2351.13,748.75 2349.13,751.917 2345.5,754C 2341.5,754.667 2337.5,754.667 2333.5,754C 2331.95,752.786 2330.78,751.286 2330,749.5C 2329.67,741.5 2329.33,733.5 2329,725.5C 2328.31,728.196 2326.81,730.363 2324.5,732C 2326.62,733.737 2327.46,735.904 2327,738.5C 2317.28,755.591 2303.45,759.758 2285.5,751C 2271.68,739.186 2268.84,725.019 2277,708.5C 2281.59,702.466 2287.43,698.299 2294.5,696C 2291.9,694.446 2290.73,692.28 2291,689.5C 2293.37,685.147 2295.7,680.813 2298,676.5C 2299.73,674.598 2301.56,672.931 2303.5,671.5 Z M 2296.5,713.5 C 2300.3,712.88 2303.64,713.714 2306.5,716C 2305.74,716.944 2304.74,717.444 2303.5,717.5C 2300.53,716.861 2297.53,716.361 2294.5,716C 2295.38,715.292 2296.05,714.458 2296.5,713.5 Z M 2373.5,713.5 C 2377.3,712.88 2380.64,713.714 2383.5,716C 2379.65,717.755 2375.65,717.922 2371.5,716.5C 2372.19,715.482 2372.86,714.482 2373.5,713.5 Z M 2430.5,713.5 C 2432.92,713.192 2435.26,713.526 2437.5,714.5C 2441.25,722.066 2447.25,724.566 2455.5,722C 2456.33,721.167 2457.17,720.333 2458,719.5C 2458.17,722.157 2458.01,724.824 2457.5,727.5C 2452.45,726.006 2447.45,726.173 2442.5,728C 2440.58,730.498 2438.92,733.165 2437.5,736C 2428.59,737.591 2424.59,733.757 2425.5,724.5C 2425.53,720.005 2427.19,716.338 2430.5,713.5 Z M 2483.5,713.5 C 2486.19,713.336 2488.85,713.503 2491.5,714C 2496.66,721.415 2496.66,728.748 2491.5,736C 2487.41,737.227 2483.91,736.394 2481,733.5C 2478.45,726.276 2479.28,719.61 2483.5,713.5 Z M 2294.5,732.5 C 2299.84,732.334 2305.18,732.501 2310.5,733C 2306.36,736.242 2301.69,737.242 2296.5,736C 2295.18,735.184 2294.51,734.017 2294.5,732.5 Z M 2371.5,732.5 C 2376.84,732.334 2382.18,732.501 2387.5,733C 2385.17,735.829 2382.17,736.996 2378.5,736.5C 2374.78,737.274 2372.45,735.94 2371.5,732.5 Z"/></g>
<g><path style="opacity:0.797" fill="#fefffe" d="M 2252.5,677.5 C 2263.24,677.765 2273.9,678.265 2284.5,679C 2288.37,682.66 2289.53,687.16 2288,692.5C 2287.22,694.286 2286.05,695.786 2284.5,697C 2278.96,698.404 2273.29,698.904 2267.5,698.5C 2267.67,715.503 2267.5,732.503 2267,749.5C 2264.65,753.84 2260.98,755.507 2256,754.5C 2251.76,755.267 2248.43,753.933 2246,750.5C 2245.5,733.17 2245.33,715.837 2245.5,698.5C 2239.71,698.904 2234.04,698.404 2228.5,697C 2224.81,692.865 2223.64,688.031 2225,682.5C 2226.17,681.333 2227.33,680.167 2228.5,679C 2236.68,678.829 2244.68,678.329 2252.5,677.5 Z"/></g>
<g><path style="opacity:0.786" fill="#fefffe" d="M 1592.5,678.5 C 1597.51,678.334 1602.51,678.501 1607.5,679C 1608.33,679.833 1609.17,680.667 1610,681.5C 1610.67,704.167 1610.67,726.833 1610,749.5C 1609.17,751.667 1607.67,753.167 1605.5,754C 1601.5,754.667 1597.5,754.667 1593.5,754C 1590.73,752.238 1589.23,749.738 1589,746.5C 1588.33,725.5 1588.33,704.5 1589,683.5C 1590,681.677 1591.16,680.01 1592.5,678.5 Z"/></g>
<g><path style="opacity:0.672" fill="#fefffe" d="M 1757.5,678.5 C 1762.18,678.334 1766.85,678.501 1771.5,679C 1776.86,684.853 1776.53,690.519 1770.5,696C 1757.94,699.758 1752.44,695.258 1754,682.5C 1755.38,681.295 1756.54,679.962 1757.5,678.5 Z"/></g>
<g><path style="opacity:0.833" fill="#fefffe" d="M 1927.5,678.5 C 1935.17,678.334 1942.84,678.5 1950.5,679C 1951.33,679.833 1952.17,680.667 1953,681.5C 1957.15,693.118 1961.15,704.785 1965,716.5C 1969.11,704.501 1973.45,692.501 1978,680.5C 1978.5,680 1979,679.5 1979.5,679C 1986.83,678.333 1994.17,678.333 2001.5,679C 2002.67,680.167 2003.83,681.333 2005,682.5C 2005.98,705.255 2005.65,727.922 2004,750.5C 1999.91,754.305 1995.08,755.472 1989.5,754C 1984.3,751.06 1982.63,746.726 1984.5,741C 1983.85,735.515 1983.35,730.015 1983,724.5C 1980.83,732.65 1978.17,740.65 1975,748.5C 1968.72,756.124 1962.05,756.457 1955,749.5C 1952.33,741.49 1949.66,733.49 1947,725.5C 1946.94,733.936 1946.27,742.269 1945,750.5C 1943.79,752.049 1942.29,753.215 1940.5,754C 1936.04,754.867 1931.71,754.534 1927.5,753C 1926.3,752.097 1925.47,750.931 1925,749.5C 1924.33,726.833 1924.33,704.167 1925,681.5C 1926.04,680.627 1926.88,679.627 1927.5,678.5 Z"/></g>
<g><path style="opacity:0.657" fill="#fefffe" d="M 2012.5,678.5 C 2016.85,678.334 2021.18,678.501 2025.5,679C 2030.77,684.595 2030.77,690.261 2025.5,696C 2012.24,699.736 2007.07,694.902 2010,681.5C 2011.04,680.627 2011.88,679.627 2012.5,678.5 Z"/></g>
<g><path style="opacity:0.796" fill="#fefffe" d="M 1728.5,681.5 C 1731.77,681.923 1734.94,681.923 1738,681.5C 1739.94,682.439 1741.61,683.773 1743,685.5C 1743.5,689.486 1743.67,693.486 1743.5,697.5C 1748.56,696.717 1752.06,698.717 1754,703.5C 1754.35,701.152 1755.51,699.319 1757.5,698C 1763.17,697.097 1768.67,697.597 1774,699.5C 1775.9,697.984 1778.06,697.317 1780.5,697.5C 1778.1,684.396 1783.44,679.23 1796.5,682C 1797.93,682.465 1799.1,683.299 1800,684.5C 1801.37,688.7 1801.87,693.033 1801.5,697.5C 1805.08,696.923 1808.08,697.923 1810.5,700.5C 1811.7,699.469 1813.03,698.635 1814.5,698C 1825.79,694.06 1831.46,697.894 1831.5,709.5C 1830.4,717.137 1830.23,724.803 1831,732.5C 1831.18,735.679 1832.85,737.012 1836,736.5C 1840.13,736.367 1842.3,734.2 1842.5,730C 1841.25,720.539 1841.41,711.039 1843,701.5C 1845.54,698.234 1848.87,696.9 1853,697.5C 1856.52,697.083 1859.52,698.083 1862,700.5C 1864.1,699.076 1866.27,697.742 1868.5,696.5C 1867.52,683.981 1873.19,679.148 1885.5,682C 1889.93,686.182 1891.59,691.348 1890.5,697.5C 1895.86,697.515 1899.19,700.182 1900.5,705.5C 1899.19,710.818 1895.86,713.485 1890.5,713.5C 1890.5,721.167 1890.5,728.833 1890.5,736.5C 1897.48,736.142 1900.81,739.475 1900.5,746.5C 1900,749.188 1898.66,751.355 1896.5,753C 1887.52,755.96 1879.35,754.46 1872,748.5C 1871.33,747.167 1870.67,745.833 1870,744.5C 1869.5,734.172 1869.33,723.839 1869.5,713.5C 1867.5,713.167 1865.5,712.833 1863.5,712.5C 1863.94,725.574 1863.44,738.574 1862,751.5C 1859.96,753.974 1857.29,754.974 1854,754.5C 1852.17,754.333 1850.33,754.167 1848.5,754C 1847.54,752.536 1846.21,751.703 1844.5,751.5C 1835.4,756.874 1826.4,756.707 1817.5,751C 1814.89,749.062 1813.06,746.562 1812,743.5C 1810.17,754.117 1804,757.617 1793.5,754C 1787.89,752.718 1783.72,749.551 1781,744.5C 1780.5,734.172 1780.33,723.839 1780.5,713.5C 1779.07,713.579 1777.74,713.246 1776.5,712.5C 1775.75,713.376 1775.25,714.376 1775,715.5C 1775.65,726.557 1775.65,737.557 1775,748.5C 1770.82,754.112 1765.32,755.945 1758.5,754C 1756.65,752.316 1754.98,750.483 1753.5,748.5C 1752.76,750.747 1751.42,752.58 1749.5,754C 1739.7,756.565 1731.54,754.065 1725,746.5C 1724.14,744.913 1723.47,743.246 1723,741.5C 1722.5,732.173 1722.33,722.839 1722.5,713.5C 1721.07,713.579 1719.74,713.246 1718.5,712.5C 1717.03,716.804 1714.03,718.971 1709.5,719C 1723.75,729.117 1724.08,739.784 1710.5,751C 1699.09,756.407 1687.76,756.407 1676.5,751C 1673.63,748.463 1671.13,745.63 1669,742.5C 1667.89,753.156 1662.05,756.989 1651.5,754C 1650.33,752.833 1649.17,751.667 1648,750.5C 1647.86,739.125 1647.19,727.792 1646,716.5C 1643.29,713.022 1640.29,712.689 1637,715.5C 1636.07,718.136 1635.23,720.803 1634.5,723.5C 1635.6,731.137 1635.77,738.803 1635,746.5C 1634.39,749.548 1632.89,752.048 1630.5,754C 1626.5,754.667 1622.5,754.667 1618.5,754C 1616.62,752.457 1615.12,750.624 1614,748.5C 1613.33,733.167 1613.33,717.833 1614,702.5C 1614.83,700.333 1616.33,698.833 1618.5,698C 1623.51,697.061 1628.34,697.561 1633,699.5C 1645.01,692.965 1655.68,694.632 1665,704.5C 1665.6,707.637 1666.6,710.637 1668,713.5C 1670.14,703.497 1676.31,697.664 1686.5,696C 1697.47,694.215 1706.97,697.049 1715,704.5C 1715.44,699.888 1717.94,697.554 1722.5,697.5C 1720.9,690.561 1722.9,685.228 1728.5,681.5 Z M 1752.5,709.5 C 1753.66,719.992 1753.83,730.659 1753,741.5C 1751.32,737.501 1748.32,735.501 1744,735.5C 1743.5,728.174 1743.33,720.841 1743.5,713.5C 1747.42,714.039 1750.42,712.706 1752.5,709.5 Z M 1808.5,711.5 C 1809.5,711.47 1810.16,711.97 1810.5,713C 1809.41,721.838 1809.25,730.671 1810,739.5C 1807.84,737.197 1805.17,735.863 1802,735.5C 1801.5,728.174 1801.33,720.841 1801.5,713.5C 1804.07,713.279 1806.4,712.612 1808.5,711.5 Z M 1689.5,713.5 C 1693.61,711.786 1697.28,712.62 1700.5,716C 1696.77,715.707 1693.1,714.874 1689.5,713.5 Z M 1668.5,719.5 C 1671.18,725.004 1675.51,728.504 1681.5,730C 1677.83,730.333 1674.17,730.667 1670.5,731C 1670,731.5 1669.5,732 1669,732.5C 1668.5,728.179 1668.33,723.846 1668.5,719.5 Z M 1685.5,732.5 C 1690.28,731.742 1694.28,733.075 1697.5,736.5C 1695.58,738.81 1693.25,739.143 1690.5,737.5C 1688.51,736.173 1686.84,734.506 1685.5,732.5 Z"/></g>
<g><path style="opacity:0.829" fill="#fefffe" d="M 912.5,685.5 C 920.84,685.334 929.173,685.5 937.5,686C 946.501,688.008 954.335,692.175 961,698.5C 961.667,700.5 961.667,702.5 961,704.5C 959.053,708.284 957.72,712.284 957,716.5C 955.516,720.017 953.016,721.851 949.5,722C 945.592,717.515 941.926,712.848 938.5,708C 926.975,700.14 915.308,699.806 903.5,707C 890.141,720.588 890.474,733.921 904.5,747C 919.155,753.664 933.822,760.331 948.5,767C 966.182,778.913 972.349,795.413 967,816.5C 956.823,844.174 936.99,858.508 907.5,859.5C 902.788,859.414 898.121,858.914 893.5,858C 887.308,856.618 881.308,854.618 875.5,852C 872.035,849.537 868.869,846.704 866,843.5C 865.833,842.333 865.667,841.167 865.5,840C 867.68,834.395 868.847,828.562 869,822.5C 870.907,818.99 873.74,817.824 877.5,819C 882.148,825.646 887.482,831.646 893.5,837C 904.454,843.173 915.788,844.173 927.5,840C 943.228,828.704 947.062,814.204 939,796.5C 935.958,793.067 932.458,790.234 928.5,788C 919.872,783.584 910.872,779.917 901.5,777C 872.924,764.958 863.424,744.125 873,714.5C 881.861,698.833 895.028,689.166 912.5,685.5 Z"/></g>
<g><path style="opacity:0.83" fill="#fefffe" d="M 367.5,688.5 C 371.548,688.441 374.715,690.108 377,693.5C 395.926,732.283 416.426,770.283 438.5,807.5C 439.478,807.023 440.311,806.357 441,805.5C 460.613,768.7 480.613,732.033 501,695.5C 502.62,693.759 504.12,691.925 505.5,690C 508.669,689.022 511.503,689.522 514,691.5C 518.976,733.176 523.643,774.843 528,816.5C 529.804,827.848 531.637,839.181 533.5,850.5C 533.124,852.383 532.124,853.883 530.5,855C 523.608,856.591 516.608,856.924 509.5,856C 507.152,855.654 505.319,854.487 504,852.5C 501.777,816.38 498.277,780.38 493.5,744.5C 473.314,778.198 455.147,813.198 439,849.5C 437.155,851.087 435.155,852.421 433,853.5C 430.845,852.421 428.845,851.087 427,849.5C 411.145,813.628 393.478,778.628 374,744.5C 368.733,780.272 365.066,816.272 363,852.5C 360.215,855.976 356.549,857.309 352,856.5C 347.451,857.309 343.785,855.976 341,852.5C 341.162,847.545 341.495,842.545 342,837.5C 350.194,789.338 357.194,741.005 363,692.5C 364.397,690.93 365.897,689.596 367.5,688.5 Z"/></g>
<g><path style="opacity:0.836" fill="#fefffe" d="M 607.5,688.5 C 611.247,688.392 614.914,688.892 618.5,690C 653.965,729.134 689.799,767.967 726,806.5C 726.333,768.5 726.667,730.5 727,692.5C 729.749,689.959 733.082,688.959 737,689.5C 740.918,688.959 744.251,689.959 747,692.5C 747.667,745.833 747.667,799.167 747,852.5C 740.69,858.244 735.023,857.577 730,850.5C 695.398,811.56 660.398,772.894 625,734.5C 624.667,773.5 624.333,812.5 624,851.5C 619.509,856.259 614.009,857.759 607.5,856C 606.069,855.535 604.903,854.701 604,853.5C 603.333,799.5 603.333,745.5 604,691.5C 605.145,690.364 606.312,689.364 607.5,688.5 Z"/></g>
<g><path style="opacity:0.84" fill="#fefffe" d="M 551.5,689.5 C 558.841,689.334 566.174,689.5 573.5,690C 574.701,690.903 575.535,692.069 576,693.5C 576.667,746.167 576.667,798.833 576,851.5C 574.336,855.084 571.503,856.751 567.5,856.5C 562.91,856.146 558.243,855.979 553.5,856C 551.714,855.215 550.214,854.049 549,852.5C 548.333,799.167 548.333,745.833 549,692.5C 550.045,691.627 550.878,690.627 551.5,689.5 Z"/></g>
<g><path style="opacity:0.818" fill="#fefffe" d="M 771.5,689.5 C 799.502,689.333 827.502,689.5 855.5,690C 858.041,692.749 859.041,696.082 858.5,700C 858.333,702.5 858.167,705 858,707.5C 857.097,708.701 855.931,709.535 854.5,710C 835.248,708.083 815.915,707.25 796.5,707.5C 796.5,724.833 796.5,742.167 796.5,759.5C 814.202,759.488 831.868,758.988 849.5,758C 850.931,758.465 852.097,759.299 853,760.5C 853.667,765.5 853.667,770.5 853,775.5C 851.316,777.066 849.316,778.066 847,778.5C 830.228,776.77 813.395,776.103 796.5,776.5C 796.5,796.833 796.5,817.167 796.5,837.5C 815.239,838.038 833.905,837.371 852.5,835.5C 855.637,835.051 858.137,836.051 860,838.5C 860.667,843.5 860.667,848.5 860,853.5C 859.097,854.701 857.931,855.535 856.5,856C 828.5,856.667 800.5,856.667 772.5,856C 771.333,854.833 770.167,853.667 769,852.5C 768.333,799.5 768.333,746.5 769,693.5C 769.662,692.016 770.496,690.683 771.5,689.5 Z"/></g>
<g><path style="opacity:0.797" fill="#fefffe" d="M 2059.5,695.5 C 2075.77,693.941 2084.6,701.274 2086,717.5C 2092.92,698.625 2106.09,692.125 2125.5,698C 2129.94,700.442 2133.77,703.608 2137,707.5C 2137.67,709.5 2138.33,711.5 2139,713.5C 2142.66,700.68 2151.16,694.68 2164.5,695.5C 2175.41,694.707 2183.58,699.04 2189,708.5C 2190.62,715.552 2187.79,719.052 2180.5,719C 2190.94,724.822 2193.78,733.322 2189,744.5C 2182.53,751.814 2174.37,755.481 2164.5,755.5C 2152.21,755.367 2143.71,749.7 2139,738.5C 2134.63,749.192 2126.63,754.859 2115,755.5C 2100.17,754.924 2090.51,747.591 2086,733.5C 2085.67,738.833 2085.33,744.167 2085,749.5C 2081.3,754.272 2076.47,755.772 2070.5,754C 2068,752.833 2066.17,751 2065,748.5C 2064.67,737.5 2064.33,726.5 2064,715.5C 2059.8,712.34 2056.47,713.006 2054,717.5C 2053.93,728.572 2053.27,739.572 2052,750.5C 2050.79,752.049 2049.29,753.215 2047.5,754C 2043.83,754.667 2040.17,754.667 2036.5,754C 2035.33,752.833 2034.17,751.667 2033,750.5C 2032.78,743.963 2032.28,737.463 2031.5,731C 2032.82,722.507 2032.82,714.007 2031.5,705.5C 2032.19,699.472 2035.52,696.806 2041.5,697.5C 2044.71,697.347 2047.71,698.014 2050.5,699.5C 2053.71,698.391 2056.71,697.058 2059.5,695.5 Z M 2111.5,712.5 C 2113.85,712.838 2116.19,713.338 2118.5,714C 2119.34,715.011 2119.67,716.178 2119.5,717.5C 2114.82,717.666 2110.15,717.499 2105.5,717C 2107.14,714.837 2109.14,713.337 2111.5,712.5 Z M 2161.5,713.5 C 2165.38,711.705 2168.72,712.539 2171.5,716C 2168.23,715.242 2164.89,714.408 2161.5,713.5 Z M 2141.5,722.5 C 2144.48,725.982 2148.15,728.482 2152.5,730C 2149.17,730.333 2145.83,730.667 2142.5,731C 2141.33,732.167 2140.17,733.333 2139,734.5C 2138.31,733.975 2137.81,733.308 2137.5,732.5C 2138.48,731.019 2139.65,729.685 2141,728.5C 2141.5,726.527 2141.66,724.527 2141.5,722.5 Z M 2106.5,733.5 C 2111.65,732.349 2116.98,732.183 2122.5,733C 2120.45,735.926 2117.61,737.093 2114,736.5C 2112.17,736.333 2110.33,736.167 2108.5,736C 2107.93,735.005 2107.27,734.172 2106.5,733.5 Z M 2157.5,732.5 C 2161.05,732.15 2164.39,732.816 2167.5,734.5C 2168.43,735.689 2168.76,737.022 2168.5,738.5C 2163.23,739.101 2159.56,737.101 2157.5,732.5 Z"/></g>
<g><path style="opacity:0.76" fill="#fefffe" d="M 2013.5,697.5 C 2017.51,697.334 2021.51,697.501 2025.5,698C 2027.05,699.214 2028.22,700.714 2029,702.5C 2029.67,717.833 2029.67,733.167 2029,748.5C 2025.82,754.234 2020.99,756.067 2014.5,754C 2012.33,753.167 2010.83,751.667 2010,749.5C 2009.33,733.5 2009.33,717.5 2010,701.5C 2011.38,700.295 2012.54,698.962 2013.5,697.5 Z"/></g>
<g><path style="opacity:0.725" fill="#fefffe" d="M 2224.5,713.5 C 2233.05,714.915 2236.22,719.915 2234,728.5C 2233.53,729.931 2232.7,731.097 2231.5,732C 2221.52,734.155 2211.52,734.489 2201.5,733C 2200.07,732.535 2198.9,731.701 2198,730.5C 2197.33,726.167 2197.33,721.833 2198,717.5C 2198.5,717 2199,716.5 2199.5,716C 2207.91,714.894 2216.24,714.06 2224.5,713.5 Z"/></g>
<g><path style="opacity:0.768" fill="#fefffe" d="M 652.5,857.5 C 659.508,857.334 666.508,857.5 673.5,858C 675.303,858.637 676.636,859.803 677.5,861.5C 670.705,872.914 663.038,883.747 654.5,894C 649.618,895.555 644.618,895.888 639.5,895C 636.913,893.475 636.08,891.308 637,888.5C 641.632,877.903 646.799,867.569 652.5,857.5 Z"/></g>
<g><path style="opacity:0.854" fill="#fefffe" d="M 145.5,902.5 C 167.463,898.665 186.63,903.999 203,918.5C 203.402,919.872 203.902,921.205 204.5,922.5C 200.237,928.749 194.903,933.749 188.5,937.5C 184.63,935.138 180.63,932.971 176.5,931C 165.152,926.376 153.819,926.376 142.5,931C 139.96,933.205 137.793,935.705 136,938.5C 135.333,943.833 135.333,949.167 136,954.5C 136.465,955.931 137.299,957.097 138.5,958C 142.878,960.599 147.545,962.599 152.5,964C 161.879,965.012 171.213,966.345 180.5,968C 205,977.159 214.833,994.659 210,1020.5C 199.59,1043.95 181.423,1054.95 155.5,1053.5C 134.404,1055.04 117.07,1048.04 103.5,1032.5C 107.452,1025.55 112.786,1019.88 119.5,1015.5C 125.161,1018.66 130.828,1021.83 136.5,1025C 148.816,1029.66 161.15,1029.66 173.5,1025C 184.806,1016.79 186.14,1007.12 177.5,996C 174.618,994.392 171.618,993.059 168.5,992C 158.799,990.792 149.132,989.459 139.5,988C 109.013,976.842 99.8468,956.008 112,925.5C 116.467,920.032 121.3,914.865 126.5,910C 132.728,906.985 139.062,904.485 145.5,902.5 Z"/></g>
<g><path style="opacity:0.757" fill="#fefffe" d="M 320.5,903.5 C 327.508,903.334 334.508,903.5 341.5,904C 342.333,904.833 343.167,905.667 344,906.5C 350.633,927.537 343.133,935.37 321.5,930C 319.714,929.215 318.214,928.049 317,926.5C 316.333,920.5 316.333,914.5 317,908.5C 317.997,906.677 319.164,905.01 320.5,903.5 Z"/></g>
<g><path style="opacity:0.842" fill="#fefffe" d="M 605.5,903.5 C 635.502,903.333 665.502,903.5 695.5,904C 696.333,904.833 697.167,905.667 698,906.5C 698.667,912.5 698.667,918.5 698,924.5C 697.065,927.102 695.232,928.602 692.5,929C 671.169,929.5 649.836,929.667 628.5,929.5C 628.5,941.167 628.5,952.833 628.5,964.5C 646.836,964.333 665.17,964.5 683.5,965C 685.329,965.273 686.829,966.107 688,967.5C 688.667,973.833 688.667,980.167 688,986.5C 686.829,987.893 685.329,988.727 683.5,989C 665.17,989.5 646.836,989.667 628.5,989.5C 628.178,1001.75 628.512,1013.91 629.5,1026C 651.5,1026.33 673.5,1026.67 695.5,1027C 696.333,1027.83 697.167,1028.67 698,1029.5C 698.667,1035.83 698.667,1042.17 698,1048.5C 697.535,1049.93 696.701,1051.1 695.5,1052C 665.5,1052.67 635.5,1052.67 605.5,1052C 604.333,1050.83 603.167,1049.67 602,1048.5C 601.333,1001.5 601.333,954.5 602,907.5C 603.376,906.295 604.542,904.962 605.5,903.5 Z"/></g>
<g><path style="opacity:0.749" fill="#fefffe" d="M 771.5,903.5 C 778.841,903.334 786.174,903.5 793.5,904C 794,904.5 794.5,905 795,905.5C 796.452,911.915 796.952,918.249 796.5,924.5C 795.781,926.728 794.448,928.561 792.5,930C 785.5,930.667 778.5,930.667 771.5,930C 770.667,929.167 769.833,928.333 769,927.5C 768.333,920.5 768.333,913.5 769,906.5C 770.045,905.627 770.878,904.627 771.5,903.5 Z"/></g>
<g><path style="opacity:0.833" fill="#fefffe" d="M 471.5,915.5 C 478.284,915.08 484.95,915.58 491.5,917C 493.244,919.678 494.244,922.678 494.5,926C 494.577,932.347 494.244,938.681 493.5,945C 493.957,945.414 494.291,945.914 494.5,946.5C 499.802,947.329 505.136,947.829 510.5,948C 511.667,949.167 512.833,950.333 514,951.5C 516.55,967.106 510.05,972.772 494.5,968.5C 493.024,987.017 493.191,1005.68 495,1024.5C 495.465,1025.93 496.299,1027.1 497.5,1028C 500.095,1028.23 502.595,1028.73 505,1029.5C 508.487,1028.63 511.487,1029.63 514,1032.5C 514.909,1038.61 514.576,1044.61 513,1050.5C 512.5,1051 512,1051.5 511.5,1052C 504.5,1052.67 497.5,1052.67 490.5,1052C 485.843,1050.57 481.51,1048.57 477.5,1046C 474.271,1041.77 471.438,1037.27 469,1032.5C 467.534,1011.23 467.034,989.9 467.5,968.5C 458.593,970.421 454.593,966.921 455.5,958C 454.593,949.079 458.593,945.579 467.5,947.5C 467.334,938.161 467.5,928.827 468,919.5C 469.376,918.295 470.542,916.962 471.5,915.5 Z"/></g>
<g><path style="opacity:0.838" fill="#fefffe" d="M 716.5,915.5 C 723.615,915.075 730.615,915.575 737.5,917C 738,917.5 738.5,918 739,918.5C 739.333,927.833 739.667,937.167 740,946.5C 744.749,947.305 749.582,947.805 754.5,948C 756.286,948.785 757.786,949.951 759,951.5C 759.667,955.5 759.667,959.5 759,963.5C 758.215,965.286 757.049,966.786 755.5,968C 750.25,968.193 745.083,968.693 740,969.5C 739.833,978.167 739.667,986.833 739.5,995.5C 739.398,1005.88 739.898,1016.21 741,1026.5C 743.859,1028.84 747.025,1029.51 750.5,1028.5C 753.874,1028.8 756.707,1030.13 759,1032.5C 759.667,1037.5 759.667,1042.5 759,1047.5C 758.215,1049.29 757.049,1050.79 755.5,1052C 748.5,1052.67 741.5,1052.67 734.5,1052C 720.622,1046.44 713.289,1036.1 712.5,1021C 712.504,1003.41 712.504,985.912 712.5,968.5C 708.397,969.231 704.897,968.231 702,965.5C 701.754,962.11 701.254,958.777 700.5,955.5C 701.519,948.493 705.519,945.826 712.5,947.5C 712.334,938.161 712.5,928.827 713,919.5C 714.376,918.295 715.542,916.962 716.5,915.5 Z"/></g>
<g><path style="opacity:0.845" fill="#fefffe" d="M 242.5,944.5 C 253.888,944.117 265.221,944.617 276.5,946C 288.701,950.201 296.868,958.368 301,970.5C 301.667,996.833 301.667,1023.17 301,1049.5C 300.167,1050.33 299.333,1051.17 298.5,1052C 292.167,1052.67 285.833,1052.67 279.5,1052C 277.978,1050.48 276.478,1048.98 275,1047.5C 271.147,1050.01 266.981,1051.84 262.5,1053C 251.045,1054.6 240.045,1053.27 229.5,1049C 216.593,1040.19 211.427,1028.02 214,1012.5C 217.526,999.64 225.693,991.474 238.5,988C 247.556,986.762 256.556,986.262 265.5,986.5C 268.5,986.167 271.5,985.833 274.5,985.5C 275.033,980.772 274.2,976.105 272,971.5C 262.125,966.733 251.959,966.233 241.5,970C 239.462,972.891 236.795,974.724 233.5,975.5C 232.5,975.333 231.5,975.167 230.5,975C 226.667,971.167 222.833,967.333 219,963.5C 218.365,961.365 218.699,959.365 220,957.5C 226.195,950.783 233.695,946.449 242.5,944.5 Z M 248.5,1007.5 C 257.833,1007.5 267.167,1007.5 276.5,1007.5C 277.209,1013.89 276.043,1019.89 273,1025.5C 268.109,1028.9 262.609,1030.56 256.5,1030.5C 249.097,1031.43 243.597,1028.76 240,1022.5C 238.884,1015.14 241.717,1010.14 248.5,1007.5 Z"/></g>
<g><path style="opacity:0.826" fill="#fefffe" d="M 322.5,944.5 C 328.176,944.334 333.843,944.501 339.5,945C 340.931,945.465 342.097,946.299 343,947.5C 343.667,981.5 343.667,1015.5 343,1049.5C 342.167,1050.33 341.333,1051.17 340.5,1052C 333.833,1052.67 327.167,1052.67 320.5,1052C 318.513,1050.68 317.346,1048.85 317,1046.5C 316.333,1013.83 316.333,981.167 317,948.5C 318.5,946.531 320.333,945.198 322.5,944.5 Z"/></g>
<g><path style="opacity:0.841" fill="#fefffe" d="M 364.5,944.5 C 370.176,944.334 375.843,944.501 381.5,945C 384.477,946.145 386.144,948.312 386.5,951.5C 396.797,944.83 408.131,942.663 420.5,945C 436.146,949.316 445.646,959.483 449,975.5C 449.667,1000.17 449.667,1024.83 449,1049.5C 448.167,1050.33 447.333,1051.17 446.5,1052C 439.5,1052.67 432.5,1052.67 425.5,1052C 424.667,1051.17 423.833,1050.33 423,1049.5C 422.667,1026.5 422.333,1003.5 422,980.5C 419.841,971.683 414.174,967.349 405,967.5C 395.898,967.532 390.231,971.865 388,980.5C 387.98,1003.59 387.313,1026.59 386,1049.5C 385.167,1050.33 384.333,1051.17 383.5,1052C 376.833,1052.67 370.167,1052.67 363.5,1052C 362.667,1051.17 361.833,1050.33 361,1049.5C 360.333,1015.5 360.333,981.5 361,947.5C 362.145,946.364 363.312,945.364 364.5,944.5 Z"/></g>
<g><path style="opacity:0.826" fill="#fefffe" d="M 774.5,944.5 C 779.511,944.334 784.511,944.501 789.5,945C 791.676,945.163 793.509,945.996 795,947.5C 795.667,981.5 795.667,1015.5 795,1049.5C 794.167,1050.33 793.333,1051.17 792.5,1052C 785.833,1052.67 779.167,1052.67 772.5,1052C 770.951,1050.79 769.785,1049.29 769,1047.5C 768.333,1014.83 768.333,982.167 769,949.5C 770.107,946.887 771.94,945.22 774.5,944.5 Z"/></g>
<g><path style="opacity:0.844" fill="#fefffe" d="M 842.5,944.5 C 867.883,940.551 885.716,950.217 896,973.5C 899.234,983.603 900.234,993.936 899,1004.5C 896.056,1007.04 892.556,1008.37 888.5,1008.5C 870.243,1007.75 851.909,1007.42 833.5,1007.5C 833.539,1016.76 837.539,1023.59 845.5,1028C 858.499,1031.9 869.999,1029.4 880,1020.5C 886.813,1023.65 891.98,1028.48 895.5,1035C 894.325,1038.19 892.325,1040.86 889.5,1043C 886.228,1044.61 883.228,1046.61 880.5,1049C 864.223,1054.98 847.89,1054.98 831.5,1049C 813.39,1037.45 805.056,1020.78 806.5,999C 805.498,974.927 815.498,957.26 836.5,946C 838.708,945.809 840.708,945.309 842.5,944.5 Z M 848.5,966.5 C 863.438,965.78 871.438,972.78 872.5,987.5C 859.5,987.5 846.5,987.5 833.5,987.5C 833.89,984.161 834.39,980.827 835,977.5C 836.829,975.844 838.163,973.844 839,971.5C 842.209,969.723 845.376,968.057 848.5,966.5 Z"/></g>
<g><path style="opacity:0.842" fill="#fefffe" d="M 914.5,944.5 C 920.176,944.334 925.843,944.501 931.5,945C 934.477,946.145 936.144,948.312 936.5,951.5C 940.801,948.516 945.467,946.349 950.5,945C 976.012,940.54 992.179,950.706 999,975.5C 999.667,1000.17 999.667,1024.83 999,1049.5C 998.167,1050.33 997.333,1051.17 996.5,1052C 989.5,1052.67 982.5,1052.67 975.5,1052C 974.299,1051.1 973.465,1049.93 973,1048.5C 972.667,1025.83 972.333,1003.17 972,980.5C 969.638,972.636 964.305,968.303 956,967.5C 946.545,967.214 940.545,971.547 938,980.5C 937.98,1003.59 937.313,1026.59 936,1049.5C 935.167,1050.33 934.333,1051.17 933.5,1052C 926.833,1052.67 920.167,1052.67 913.5,1052C 912.667,1051.17 911.833,1050.33 911,1049.5C 910.333,1015.5 910.333,981.5 911,947.5C 912.145,946.364 913.312,945.364 914.5,944.5 Z"/></g>
<g><path style="opacity:0.841" fill="#fefffe" d="M 1018.5,944.5 C 1024.93,944.13 1031.26,944.63 1037.5,946C 1039.49,947.319 1040.65,949.152 1041,951.5C 1045.11,948.571 1049.61,946.404 1054.5,945C 1080.47,940.661 1096.63,951.161 1103,976.5C 1103.67,1000.83 1103.67,1025.17 1103,1049.5C 1102.17,1050.33 1101.33,1051.17 1100.5,1052C 1093.5,1052.67 1086.5,1052.67 1079.5,1052C 1078.67,1051.17 1077.83,1050.33 1077,1049.5C 1076.67,1026.5 1076.33,1003.5 1076,980.5C 1073.76,971.436 1067.93,967.102 1058.5,967.5C 1055.25,968.645 1051.92,969.479 1048.5,970C 1045.73,972.383 1043.56,975.217 1042,978.5C 1041.98,1002.59 1041.31,1026.59 1040,1050.5C 1039.5,1051 1039,1051.5 1038.5,1052C 1031.5,1052.67 1024.5,1052.67 1017.5,1052C 1016.67,1051.17 1015.83,1050.33 1015,1049.5C 1014.33,1015.5 1014.33,981.5 1015,947.5C 1016.15,946.364 1017.31,945.364 1018.5,944.5 Z"/></g>
<g><path style="opacity:0.844" fill="#fefffe" d="M 1147.5,944.5 C 1180.3,940.802 1199.47,955.135 1205,987.5C 1205.67,993.167 1205.67,998.833 1205,1004.5C 1204.17,1005.33 1203.33,1006.17 1202.5,1007C 1197.54,1007.87 1192.54,1008.37 1187.5,1008.5C 1171.51,1007.63 1155.51,1007.3 1139.5,1007.5C 1140.19,1022.25 1147.85,1029.58 1162.5,1029.5C 1171.64,1029.2 1179.81,1026.2 1187,1020.5C 1193.2,1024.04 1198.04,1028.87 1201.5,1035C 1201.33,1035.83 1201.17,1036.67 1201,1037.5C 1187.04,1051.48 1170.21,1056.65 1150.5,1053C 1132.22,1048.72 1120.39,1037.56 1115,1019.5C 1110.8,1001.76 1112.13,984.422 1119,967.5C 1125.7,956.293 1135.2,948.626 1147.5,944.5 Z M 1155.5,966.5 C 1170.29,965.619 1178.29,972.619 1179.5,987.5C 1166.15,987.833 1152.82,987.499 1139.5,986.5C 1140.85,976.497 1146.18,969.831 1155.5,966.5 Z"/></g>
<g><path style="opacity:0.806" fill="#fefffe" d="M 526.5,980.5 C 545.235,980.039 563.902,980.539 582.5,982C 583.701,982.903 584.535,984.069 585,985.5C 585.667,990.833 585.667,996.167 585,1001.5C 584.215,1003.29 583.049,1004.79 581.5,1006C 562.833,1006.67 544.167,1006.67 525.5,1006C 521.36,1003.05 519.693,999.05 520.5,994C 520.544,990.43 521.044,986.93 522,983.5C 523.409,982.219 524.909,981.219 526.5,980.5 Z"/></g>
</svg>
