<?xml version="1.0" encoding="UTF-8"?>
<!DOCTYPE svg PUBLIC "-//W3C//DTD SVG 1.1//EN" "http://www.w3.org/Graphics/SVG/1.1/DTD/svg11.dtd">
<svg xmlns="http://www.w3.org/2000/svg" version="1.1" width="2047px" height="1822px" style="shape-rendering:geometricPrecision; text-rendering:geometricPrecision; image-rendering:optimizeQuality; fill-rule:evenodd; clip-rule:evenodd" xmlns:xlink="http://www.w3.org/1999/xlink">
<g><path style="opacity:0.956" fill="#000000" d="M 860.5,-0.5 C 879.833,-0.5 899.167,-0.5 918.5,-0.5C 943.687,0.617455 968.687,4.11746 993.5,10C 999.637,11.6011 1005.64,13.6011 1011.5,16C 1035.46,48.0776 1059.29,80.2442 1083,112.5C 1084.21,114.049 1085.71,115.215 1087.5,116C 1176.51,124.035 1265.51,132.201 1354.5,140.5C 1404.71,124.706 1454.71,108.206 1504.5,91C 1568.26,94.5844 1631.26,103.584 1693.5,118C 1733.58,130.62 1767.74,152.453 1796,183.5C 1804.89,193.955 1810.56,205.955 1813,219.5C 1813.83,245.506 1813.67,271.506 1812.5,297.5C 1772.95,311.24 1733.28,324.573 1693.5,337.5C 1693.33,346.173 1693.5,354.84 1694,363.5C 1733.59,349.469 1773.43,336.136 1813.5,323.5C 1813.5,335.833 1813.5,348.167 1813.5,360.5C 1774.09,373.359 1734.76,386.525 1695.5,400C 1694.2,404.246 1693.53,408.746 1693.5,413.5C 1693.67,417.833 1693.83,422.167 1694,426.5C 1733.61,412.463 1773.44,399.13 1813.5,386.5C 1813.5,399.167 1813.5,411.833 1813.5,424.5C 1774.09,437.359 1734.76,450.525 1695.5,464C 1694.18,472.441 1694.18,480.941 1695.5,489.5C 1734.5,476.167 1773.5,462.833 1812.5,449.5C 1813.82,462.062 1813.82,474.562 1812.5,487C 1773.24,500.475 1733.91,513.641 1694.5,526.5C 1694.17,535.192 1694.5,543.859 1695.5,552.5C 1734.5,539.167 1773.5,525.833 1812.5,512.5C 1813.5,525.149 1813.83,537.816 1813.5,550.5C 1774.09,563.359 1734.76,576.525 1695.5,590C 1694.2,594.246 1693.53,598.746 1693.5,603.5C 1693.67,607.833 1693.83,612.167 1694,616.5C 1733.61,602.463 1773.44,589.13 1813.5,576.5C 1813.5,588.833 1813.5,601.167 1813.5,613.5C 1773.72,626.427 1734.05,639.76 1694.5,653.5C 1693.5,661.807 1693.17,670.14 1693.5,678.5C 1733.28,665.573 1772.95,652.24 1812.5,638.5C 1813.82,651.396 1813.82,664.229 1812.5,677C 1773.24,690.475 1733.91,703.641 1694.5,716.5C 1694.33,725.173 1694.5,733.84 1695,742.5C 1734.1,729.037 1773.27,715.704 1812.5,702.5C 1812.83,708.667 1813.17,714.833 1813.5,721C 1813.48,727.574 1812.81,733.907 1811.5,740C 1772.8,753.068 1734.13,766.235 1695.5,779.5C 1694.33,788.147 1694.17,796.814 1695,805.5C 1734.33,791.667 1773.83,778.333 1813.5,765.5C 1813.5,778.167 1813.5,790.833 1813.5,803.5C 1774.09,816.359 1734.76,829.525 1695.5,843C 1694.52,851.415 1694.18,859.915 1694.5,868.5C 1734.11,855.296 1773.78,842.296 1813.5,829.5C 1813.48,838.414 1811.98,847.08 1809,855.5C 1784.11,917.953 1755.44,978.619 1723,1037.5C 1719.54,1043.59 1715.71,1049.42 1711.5,1055C 1670.03,1081.79 1628.03,1107.79 1585.5,1133C 1514.15,1175.68 1442.15,1217.34 1369.5,1258C 1357.15,1262.17 1344.49,1263.5 1331.5,1262C 1323.82,1260.73 1316.15,1259.73 1308.5,1259C 1255.8,1315.37 1203.47,1372.03 1151.5,1429C 1163.23,1474.19 1149.23,1508.86 1109.5,1533C 778.407,1470.78 447.407,1407.78 116.5,1344C 101.99,1321.05 98.4903,1296.55 106,1270.5C 115.452,1249.88 130.619,1235.21 151.5,1226.5C 167.718,1231.14 184.051,1234.97 200.5,1238C 278.806,1158.69 357.473,1079.69 436.5,1001C 420.314,1000.75 404.98,997.082 390.5,990C 378.884,983.281 373.051,973.115 373,959.5C 367.201,907.644 363.201,855.644 361,803.5C 351.799,620.602 348.466,437.602 351,254.5C 351.441,215.34 354.107,176.34 359,137.5C 359.646,124.691 365.479,115.191 376.5,109C 403.308,96.9526 430.974,87.2859 459.5,80C 577.546,49.9905 696.546,24.3238 816.5,3C 831.311,1.68145 845.977,0.514782 860.5,-0.5 Z"/></g>
<g><path style="opacity:1" fill="#1a1a1a" d="M 855.5,10.5 C 895.696,9.28579 935.696,11.4525 975.5,17C 984.989,19.0755 994.323,21.7421 1003.5,25C 1028.72,57.884 1053.55,91.0506 1078,124.5C 1079.49,126.004 1081.32,126.837 1083.5,127C 1175.83,135.545 1268.16,143.545 1360.5,151C 1409.73,134.202 1459.06,117.702 1508.5,101.5C 1564.98,105.896 1620.98,113.73 1676.5,125C 1713.74,133.953 1746.41,151.286 1774.5,177C 1787.29,188.107 1796.45,201.607 1802,217.5C 1802.5,241.498 1802.67,265.498 1802.5,289.5C 1762.73,302.423 1723.06,315.756 1683.5,329.5C 1682.5,345.82 1682.17,362.153 1682.5,378.5C 1722.57,365.364 1762.57,352.031 1802.5,338.5C 1802.5,343.167 1802.5,347.833 1802.5,352.5C 1762.72,365.427 1723.05,378.76 1683.5,392.5C 1682.5,408.82 1682.17,425.153 1682.5,441.5C 1722.43,427.969 1762.43,414.636 1802.5,401.5C 1802.5,406.5 1802.5,411.5 1802.5,416.5C 1762.78,429.296 1723.11,442.296 1683.5,455.5C 1683.5,471.833 1683.5,488.167 1683.5,504.5C 1723.11,491.296 1762.78,478.296 1802.5,465.5C 1802.8,470.099 1802.47,474.599 1801.5,479C 1762.39,491.87 1723.39,505.037 1684.5,518.5C 1683.5,534.82 1683.17,551.153 1683.5,567.5C 1723.02,554.771 1762.35,541.437 1801.5,527.5C 1802.49,532.456 1802.83,537.456 1802.5,542.5C 1762.73,555.423 1723.06,568.756 1683.5,582.5C 1682.5,598.82 1682.17,615.153 1682.5,631.5C 1722.43,617.969 1762.43,604.636 1802.5,591.5C 1802.5,596.167 1802.5,600.833 1802.5,605.5C 1762.82,618.506 1723.16,631.672 1683.5,645C 1682.18,661.436 1682.18,677.936 1683.5,694.5C 1722.92,680.359 1762.59,667.026 1802.5,654.5C 1802.5,659.5 1802.5,664.5 1802.5,669.5C 1762.92,681.692 1723.59,694.692 1684.5,708.5C 1683.5,724.82 1683.17,741.153 1683.5,757.5C 1723.02,744.771 1762.35,731.437 1801.5,717.5C 1801.83,719.833 1802.17,722.167 1802.5,724.5C 1802.43,727.287 1801.76,729.787 1800.5,732C 1761.8,745.068 1723.13,758.235 1684.5,771.5C 1683.17,787.833 1683.17,804.167 1684.5,820.5C 1723.5,807.167 1762.5,793.833 1801.5,780.5C 1802.49,785.456 1802.83,790.456 1802.5,795.5C 1762.83,808.333 1723.33,821.667 1684,835.5C 1683.33,851.833 1683.33,868.167 1684,884.5C 1722.67,871.167 1761.33,857.833 1800,844.5C 1795.49,859.339 1790.16,874.006 1784,888.5C 1760.49,942.848 1733.83,995.515 1704,1046.5C 1668.25,1069.63 1632.09,1092.13 1595.5,1114C 1522.76,1157.07 1449.76,1199.73 1376.5,1242C 1361.92,1250.37 1346.26,1253.37 1329.5,1251C 1321.42,1249.32 1313.42,1247.66 1305.5,1246C 1250.22,1305.4 1195.05,1364.9 1140,1424.5C 1141.3,1431.09 1142.63,1437.76 1144,1444.5C 1147.49,1477.67 1135.33,1503.17 1107.5,1521C 1087.48,1518.11 1067.48,1514.77 1047.5,1511C 739.55,1451.88 431.55,1392.88 123.5,1334C 114.574,1317.95 111.408,1300.78 114,1282.5C 120.12,1261.91 132.953,1247.24 152.5,1238.5C 167.833,1242.33 183.167,1246.17 198.5,1250C 200.5,1250.67 202.5,1250.67 204.5,1250C 291.347,1162.32 378.347,1074.82 465.5,987.5C 464.833,987.167 464.167,986.833 463.5,986.5C 440.801,992.053 418.801,990.22 397.5,981C 393.067,978.867 389.567,975.7 387,971.5C 382.692,948.676 379.692,925.676 378,902.5C 363.749,674.691 358.749,446.691 363,218.5C 363.525,188.525 366.525,158.859 372,129.5C 373,127.5 374,125.5 375,123.5C 381.642,118.761 388.809,114.928 396.5,112C 408.694,107.269 421.027,102.935 433.5,99C 500.166,80.1079 567.499,63.7746 635.5,50C 696.381,37.3572 757.381,25.3572 818.5,14C 830.962,12.5695 843.295,11.4029 855.5,10.5 Z"/></g>
<g><path style="opacity:1" fill="#4c4c4c" d="M 443.5,204.5 C 448.179,204.334 452.845,204.501 457.5,205C 747.921,246.536 1038.25,288.536 1328.5,331C 1339.6,332.799 1347.1,338.966 1351,349.5C 1353.06,357.363 1354.39,365.363 1355,373.5C 1355.67,572.167 1355.67,770.833 1355,969.5C 1355.09,985.053 1353.43,1000.39 1350,1015.5C 1344.45,1028.38 1334.61,1035.54 1320.5,1037C 1307.18,1038.93 1293.85,1038.93 1280.5,1037C 1013.82,994.666 747.158,952.333 480.5,910C 462.781,905.895 447.947,897.062 436,883.5C 432.858,878.882 430.524,873.882 429,868.5C 425.516,656.495 422.183,444.495 419,232.5C 421.41,217.95 429.576,208.616 443.5,204.5 Z"/></g>
<g><path style="opacity:1" fill="#0c0c0c" d="M 493.5,239.5 C 505.92,239.679 518.253,240.845 530.5,243C 755.068,276.224 979.734,308.891 1204.5,341C 1236.12,345.41 1267.78,349.41 1299.5,353C 1315.82,355.319 1325.65,364.486 1329,380.5C 1330.18,401.812 1330.85,423.146 1331,444.5C 1331.96,618.173 1331.29,791.84 1329,965.5C 1328.41,975.949 1325.41,985.615 1320,994.5C 1314.52,1000.83 1307.69,1004.99 1299.5,1007C 1285.9,1009.92 1272.24,1010.25 1258.5,1008C 1014.55,969.007 770.552,930.34 526.5,892C 508.28,887.648 493.447,878.148 482,863.5C 478.462,858.015 476.462,852.015 476,845.5C 473.268,657.157 470.101,468.824 466.5,280.5C 465.353,259.717 474.353,246.051 493.5,239.5 Z"/></g>
<g><path style="opacity:1" fill="#ededed" d="M 496.5,243.5 C 500.514,243.334 504.514,243.501 508.5,244C 713.132,274.186 917.799,304.186 1122.5,334C 1178.71,342.313 1235.04,349.646 1291.5,356C 1299.5,357.25 1307.17,359.583 1314.5,363C 1319.31,366.789 1322.47,371.622 1324,377.5C 1324.83,384.484 1325.5,391.484 1326,398.5C 1326.92,585.504 1326.59,772.504 1325,959.5C 1325.24,971.445 1322.24,982.445 1316,992.5C 1304.61,1002.51 1291.27,1006.51 1276,1004.5C 1268.79,1004.5 1261.63,1004 1254.5,1003C 1016.5,965.333 778.5,927.667 540.5,890C 519.222,887.944 501.389,879.111 487,863.5C 484.806,860.446 483.139,857.112 482,853.5C 480.803,845.562 480.136,837.562 480,829.5C 477.134,653.5 474.301,477.5 471.5,301.5C 471.373,288.78 471.873,276.113 473,263.5C 477.415,252.569 485.248,245.902 496.5,243.5 Z"/></g>
<g><path style="opacity:1" fill="#21221e" d="M 1135.5,373.5 C 1136.04,373.56 1136.38,373.893 1136.5,374.5C 1109.01,404.158 1081.68,433.991 1054.5,464C 981.307,504.59 907.973,544.59 834.5,584C 896.5,531.333 958.5,478.667 1020.5,426C 1058.98,408.574 1097.31,391.074 1135.5,373.5 Z"/></g>
<g><path style="opacity:1" fill="#21231f" d="M 892.5,377.5 C 935.119,375.987 973.786,387.487 1008.5,412C 1011.65,413.978 1014.31,416.478 1016.5,419.5C 1006.96,425.532 997.298,431.365 987.5,437C 916.397,474.635 845.23,512.135 774,549.5C 772.699,548.902 771.865,547.902 771.5,546.5C 829.31,501.858 886.976,457.024 944.5,412C 897.62,398.175 854.287,405.508 814.5,434C 787.938,456.248 768.771,483.748 757,516.5C 734.814,574.145 733.814,632.145 754,690.5C 754.523,692.223 755.523,693.556 757,694.5C 805.423,666.88 853.923,639.713 902.5,613C 852.862,660.971 803.528,709.304 754.5,758C 696.347,785.91 638.347,814.077 580.5,842.5C 580.167,842.167 579.833,841.833 579.5,841.5C 584.953,834.212 591.287,827.712 598.5,822C 641.313,786.021 683.98,749.854 726.5,713.5C 724.724,708.137 722.39,703.137 719.5,698.5C 643.09,741.454 566.923,784.787 491,828.5C 488.545,826.572 488.378,824.738 490.5,823C 563.318,764.674 635.651,705.841 707.5,646.5C 697.881,578.5 711.715,515.834 749,458.5C 784.617,410.102 832.45,383.102 892.5,377.5 Z"/></g>
<g><path style="opacity:1" fill="#7dfb00" d="M 798.5,531.5 C 849.481,491.524 900.481,451.524 951.5,411.5C 947.167,409 942.833,406.5 938.5,404C 855.485,391.751 795.985,423.251 760,498.5C 735.115,552.776 729.115,609.11 742,667.5C 745.338,678.346 749.171,689.013 753.5,699.5C 755.187,700.568 756.854,700.401 758.5,699C 795.833,677.667 833.167,656.333 870.5,635C 871.759,634.018 873.092,633.685 874.5,634C 834.167,673.667 793.833,713.333 753.5,753C 702.086,778.876 650.42,803.876 598.5,828C 642.667,790.5 686.833,753 731,715.5C 729.297,708.73 726.964,702.063 724,695.5C 723.632,694.09 722.799,693.09 721.5,692.5C 652.147,731.999 582.814,771.166 513.5,810C 579.333,756.833 645.167,703.667 711,650.5C 704.571,600.749 710.237,552.416 728,505.5C 751.582,447.469 793.082,408.636 852.5,389C 909.836,373.491 962.17,383.324 1009.5,418.5C 1000.2,424.822 990.535,430.655 980.5,436C 919.937,468.114 859.271,499.947 798.5,531.5 Z"/></g>
<g><path style="opacity:1" fill="#21221e" d="M 1229.5,383.5 C 1230.24,383.369 1230.91,383.536 1231.5,384C 1183.76,426.284 1135.93,468.451 1088,510.5C 1087.33,511.833 1087.33,513.167 1088,514.5C 1090.11,519.052 1092.44,523.386 1095,527.5C 1169.98,483.84 1244.98,440.173 1320,396.5C 1321.02,397.354 1321.86,398.354 1322.5,399.5C 1251.48,459.18 1180.15,518.514 1108.5,577.5C 1114.83,654.847 1095.33,724.847 1050,787.5C 1022.83,818.68 988.662,837.847 947.5,845C 926.945,848.213 906.278,849.213 885.5,848C 853.218,841.855 824.218,828.689 798.5,808.5C 877.996,763.584 957.663,718.917 1037.5,674.5C 1040.12,676.875 1039.79,679.041 1036.5,681C 980.944,725.604 925.611,770.438 870.5,815.5C 929.884,832.115 980.051,817.448 1021,771.5C 1030.39,759.111 1039.39,746.445 1048,733.5C 1062.25,705.169 1070.58,675.169 1073,643.5C 1073.67,624.5 1073.67,605.5 1073,586.5C 1071.54,569.342 1067.88,552.675 1062,536.5C 1061.09,534.336 1059.92,532.336 1058.5,530.5C 1008.97,556.597 959.302,582.097 909.5,607C 959.356,561.9 1009.02,516.567 1058.5,471C 1115.56,441.804 1172.56,412.637 1229.5,383.5 Z"/></g>
<g><path style="opacity:1" fill="#7dfb00" d="M 1116.5,386.5 C 1118.03,386.517 1118.53,387.184 1118,388.5C 1095.83,412.667 1073.67,436.833 1051.5,461C 990.973,494.591 930.307,527.591 869.5,560C 920.314,516.429 971.314,473.096 1022.5,430C 1054.04,415.725 1085.38,401.225 1116.5,386.5 Z"/></g>
<g><path style="opacity:1" fill="#7dfb00" d="M 1201.5,402.5 C 1202.24,402.369 1202.91,402.536 1203.5,403C 1163.3,438.872 1122.8,474.372 1082,509.5C 1086.55,520.288 1090.88,531.288 1095,542.5C 1095.17,538.789 1095.67,535.122 1096.5,531.5C 1162,493.586 1227.33,455.419 1292.5,417C 1293.76,416.018 1295.09,415.685 1296.5,416C 1232.09,469.619 1167.59,523.119 1103,576.5C 1110.87,653.55 1091.87,723.217 1046,785.5C 1015.5,818.834 977.666,838.001 932.5,843C 916.854,844.383 901.188,844.717 885.5,844C 856.552,838.022 830.219,826.355 806.5,809C 875.5,770.167 944.5,731.333 1013.5,692.5C 1014.29,693.355 1013.96,694.189 1012.5,695C 961.689,735.644 911.022,776.477 860.5,817.5C 927.352,838.838 983.185,822.838 1028,769.5C 1035.09,758.991 1042.42,748.658 1050,738.5C 1067.3,704.95 1076.64,669.283 1078,631.5C 1079.28,605.568 1077.28,579.902 1072,554.5C 1069.18,543.865 1065.52,533.532 1061,523.5C 1020.03,546.234 978.529,567.734 936.5,588C 978.133,550.702 1019.47,513.036 1060.5,475C 1107.56,450.804 1154.56,426.637 1201.5,402.5 Z"/></g>
<g><path style="opacity:1" fill="#488212" d="M 798.5,531.5 C 797.998,533.085 796.998,533.585 795.5,533C 796.244,531.961 797.244,531.461 798.5,531.5 Z"/></g>
<g><path style="opacity:1" fill="#20221e" d="M 967.5,642.5 C 970.932,642.248 971.932,643.581 970.5,646.5C 910.98,697.764 851.646,749.264 792.5,801C 754.167,818.167 715.833,835.333 677.5,852.5C 677.167,852.167 676.833,851.833 676.5,851.5C 703.983,821.516 731.65,791.683 759.5,762C 829.059,722.392 898.393,682.559 967.5,642.5 Z"/></g>
<g><path style="opacity:1" fill="#7dfb00" d="M 947.5,658.5 C 949.842,658.775 949.842,659.608 947.5,661C 894.538,706.293 841.871,751.96 789.5,798C 757.172,812.339 724.838,826.339 692.5,840C 715.466,814.699 738.8,789.699 762.5,765C 824.556,729.978 886.223,694.478 947.5,658.5 Z"/></g>
<g><path style="opacity:1" fill="#cacaca" d="M 445.5,1028.5 C 462.253,1030.69 478.92,1033.52 495.5,1037C 500.535,1040.01 501.702,1044.18 499,1049.5C 487.495,1062.37 475.662,1074.87 463.5,1087C 448.831,1085 434.165,1082.66 419.5,1080C 408.945,1077.73 406.778,1072.23 413,1063.5C 424.039,1051.96 434.872,1040.3 445.5,1028.5 Z"/></g>
<g><path style="opacity:1" fill="#cacaca" d="M 543.5,1048.5 C 557.565,1050.12 571.565,1052.29 585.5,1055C 598.547,1056.25 601.38,1062.09 594,1072.5C 583.5,1083.67 573,1094.83 562.5,1106C 546.378,1104.89 530.378,1102.55 514.5,1099C 507.537,1096.67 505.704,1092.17 509,1085.5C 520.061,1072.67 531.561,1060.34 543.5,1048.5 Z"/></g>
<g><path style="opacity:1" fill="#cacaca" d="M 641.5,1067.5 C 657.787,1070.49 674.12,1073.32 690.5,1076C 692.286,1076.78 693.786,1077.95 695,1079.5C 695.667,1082.5 695.667,1085.5 695,1088.5C 683.111,1101.05 671.278,1113.55 659.5,1126C 643.046,1124.41 626.712,1121.75 610.5,1118C 605.262,1114.73 604.096,1110.23 607,1104.5C 618.705,1092.3 630.205,1079.96 641.5,1067.5 Z"/></g>
<g><path style="opacity:1" fill="#cacaca" d="M 739.5,1087.5 C 756.715,1089.55 773.715,1092.72 790.5,1097C 793.394,1099.91 794.227,1103.41 793,1107.5C 781.868,1120.3 770.368,1132.8 758.5,1145C 754.833,1145.67 751.167,1145.67 747.5,1145C 734.441,1142.92 721.441,1140.59 708.5,1138C 702.878,1135.27 701.378,1131.1 704,1125.5C 715.361,1112.31 727.194,1099.64 739.5,1087.5 Z"/></g>
<g><path style="opacity:1" fill="#cacaca" d="M 374.5,1103.5 C 392.019,1105.69 409.353,1108.86 426.5,1113C 430.256,1117.03 430.422,1121.2 427,1125.5C 415.805,1137.36 404.639,1149.19 393.5,1161C 389.5,1161.67 385.5,1161.67 381.5,1161C 369.27,1158.19 356.936,1155.86 344.5,1154C 338.458,1151.16 336.958,1146.66 340,1140.5C 351.761,1128.24 363.261,1115.91 374.5,1103.5 Z"/></g>
<g><path style="opacity:1" fill="#cacaca" d="M 838.5,1106.5 C 854.91,1109.24 871.244,1112.4 887.5,1116C 891.753,1119.42 892.587,1123.59 890,1128.5C 878.444,1140.72 866.944,1152.89 855.5,1165C 852.167,1165.67 848.833,1165.67 845.5,1165C 833.209,1162.51 820.876,1160.18 808.5,1158C 801.095,1156.02 798.928,1151.52 802,1144.5C 813.035,1133.13 823.702,1121.47 834,1109.5C 835.652,1108.6 837.152,1107.6 838.5,1106.5 Z"/></g>
<g><path style="opacity:1" fill="#cacaca" d="M 473.5,1122.5 C 490.171,1125.56 506.837,1128.72 523.5,1132C 526.428,1135.26 527.262,1139.09 526,1143.5C 514.842,1156.66 503.009,1169.16 490.5,1181C 487.5,1181.67 484.5,1181.67 481.5,1181C 468.823,1178.67 456.157,1176.33 443.5,1174C 437.005,1172.15 434.838,1167.99 437,1161.5C 448.694,1147.98 460.861,1134.98 473.5,1122.5 Z"/></g>
<g><path style="opacity:1" fill="#7efc00" d="M 935.5,1126.5 C 983.821,1135.66 1032.15,1144.83 1080.5,1154C 1086.18,1155.86 1088.35,1159.69 1087,1165.5C 1075.53,1178.63 1063.7,1191.47 1051.5,1204C 1036.7,1203.31 1022.03,1201.31 1007.5,1198C 972.93,1190.62 938.263,1183.62 903.5,1177C 898.931,1174.46 897.431,1170.63 899,1165.5C 910.694,1151.98 922.861,1138.98 935.5,1126.5 Z"/></g>
<g><path style="opacity:1" fill="#cacaca" d="M 570.5,1142.5 C 586.833,1145.27 603.166,1148.1 619.5,1151C 624.224,1153.44 625.724,1157.27 624,1162.5C 612.509,1175.99 600.342,1188.82 587.5,1201C 571.451,1198.99 555.451,1196.32 539.5,1193C 533.878,1190.27 532.378,1186.1 535,1180.5C 547.094,1167.91 558.928,1155.24 570.5,1142.5 Z"/></g>
<g><path style="opacity:1" fill="#cacaca" d="M 667.5,1162.5 C 684.665,1164.26 701.665,1167.1 718.5,1171C 722.753,1174.42 723.587,1178.59 721,1183.5C 709.598,1195.85 698.098,1208.01 686.5,1220C 682.833,1220.67 679.167,1220.67 675.5,1220C 662.2,1217.17 648.867,1214.5 635.5,1212C 630.411,1207.31 630.245,1202.48 635,1197.5C 646.039,1185.96 656.872,1174.3 667.5,1162.5 Z"/></g>
<g><path style="opacity:1" fill="#cacaca" d="M 1131.5,1165.5 C 1148.24,1168.18 1164.9,1171.34 1181.5,1175C 1185.53,1178.17 1186.37,1182 1184,1186.5C 1172.5,1199.37 1160.66,1211.87 1148.5,1224C 1145.5,1224.67 1142.5,1224.67 1139.5,1224C 1125.87,1221.18 1112.2,1218.51 1098.5,1216C 1093.34,1211.05 1093.17,1205.89 1098,1200.5C 1109.06,1188.61 1120.23,1176.94 1131.5,1165.5 Z"/></g>
<g><path style="opacity:1" fill="#cacaca" d="M 303.5,1178.5 C 319.178,1180.8 334.845,1183.3 350.5,1186C 356.554,1187.04 359.054,1190.54 358,1196.5C 346.907,1210.26 335.074,1223.43 322.5,1236C 316.807,1236.41 311.141,1236.07 305.5,1235C 294.843,1233 284.176,1231 273.5,1229C 267.905,1226.65 266.072,1222.48 268,1216.5C 279.627,1203.53 291.46,1190.86 303.5,1178.5 Z"/></g>
<g><path style="opacity:1" fill="#cacaca" d="M 766.5,1181.5 C 782.525,1184.14 798.525,1186.97 814.5,1190C 821.535,1194.05 822.369,1199.21 817,1205.5C 806.142,1217.36 794.975,1228.86 783.5,1240C 768.078,1238.58 752.744,1236.25 737.5,1233C 730.095,1231.02 727.928,1226.52 731,1219.5C 742.627,1206.53 754.46,1193.86 766.5,1181.5 Z"/></g>
<g><path style="opacity:1" fill="#cacaca" d="M 1228.5,1185.5 C 1244.9,1187.9 1261.23,1190.73 1277.5,1194C 1282.22,1196.44 1283.72,1200.27 1282,1205.5C 1270.51,1218.99 1258.34,1231.82 1245.5,1244C 1229.42,1242.12 1213.42,1239.45 1197.5,1236C 1195.71,1235.22 1194.21,1234.05 1193,1232.5C 1192.33,1229.5 1192.33,1226.5 1193,1223.5C 1204.63,1210.53 1216.46,1197.86 1228.5,1185.5 Z"/></g>
<g><path style="opacity:1" fill="#cacaca" d="M 401.5,1197.5 C 418.591,1200.1 435.591,1203.26 452.5,1207C 455.902,1210.72 456.402,1214.89 454,1219.5C 442.444,1231.72 430.944,1243.89 419.5,1256C 416.5,1256.67 413.5,1256.67 410.5,1256C 396.806,1253.46 383.14,1250.79 369.5,1248C 364.112,1244.29 363.278,1239.79 367,1234.5C 378.705,1222.3 390.205,1209.96 401.5,1197.5 Z"/></g>
<g><path style="opacity:1" fill="#cacaca" d="M 863.5,1201.5 C 880.265,1203.69 896.932,1206.52 913.5,1210C 918.535,1213.01 919.702,1217.18 917,1222.5C 905.111,1235.05 893.278,1247.55 881.5,1260C 865.129,1257.91 848.796,1255.24 832.5,1252C 827.391,1248.63 826.224,1244.13 829,1238.5C 840.705,1226.3 852.205,1213.96 863.5,1201.5 Z"/></g>
<g><path style="opacity:1" fill="#cacaca" d="M 498.5,1217.5 C 516.023,1219.7 533.356,1222.86 550.5,1227C 553.394,1229.91 554.227,1233.41 553,1237.5C 541.509,1250.99 529.342,1263.82 516.5,1276C 500.416,1274.12 484.416,1271.45 468.5,1268C 462.878,1265.27 461.378,1261.1 464,1255.5C 475.337,1242.66 486.837,1230 498.5,1217.5 Z"/></g>
<g><path style="opacity:1" fill="#cacaca" d="M 960.5,1221.5 C 977.652,1223.25 994.652,1226.08 1011.5,1230C 1012.93,1230.47 1014.1,1231.3 1015,1232.5C 1015.67,1235.5 1015.67,1238.5 1015,1241.5C 1003.87,1254.3 992.368,1266.8 980.5,1279C 963.278,1278.02 946.278,1275.36 929.5,1271C 925.723,1268.05 924.557,1264.21 926,1259.5C 937.337,1246.66 948.837,1234 960.5,1221.5 Z"/></g>
<g><path style="opacity:1" fill="#cacaca" d="M 596.5,1237.5 C 612.593,1239.36 628.593,1241.86 644.5,1245C 651.463,1247.33 653.296,1251.83 650,1258.5C 638.472,1270.69 626.972,1282.86 615.5,1295C 610.146,1295.33 604.813,1295 599.5,1294C 587.327,1291.96 575.327,1289.29 563.5,1286C 560.231,1282.55 559.731,1278.71 562,1274.5C 573.761,1262.24 585.261,1249.91 596.5,1237.5 Z"/></g>
<g><path style="opacity:1" fill="#cacaca" d="M 1059.5,1240.5 C 1075.79,1243.52 1092.12,1246.36 1108.5,1249C 1113.74,1252.27 1114.9,1256.77 1112,1262.5C 1101.32,1273.68 1090.82,1285.02 1080.5,1296.5C 1077.29,1299.22 1073.62,1300.06 1069.5,1299C 1055.58,1296.01 1041.58,1293.34 1027.5,1291C 1023.21,1287.23 1022.38,1282.73 1025,1277.5C 1036.73,1265.27 1048.23,1252.94 1059.5,1240.5 Z"/></g>
<g><path style="opacity:1" fill="#cacaca" d="M 695.5,1256.5 C 711.882,1259.01 728.216,1261.84 744.5,1265C 749.543,1268.1 750.71,1272.27 748,1277.5C 736.842,1290.66 725.009,1303.16 712.5,1315C 695.237,1313.55 678.237,1310.55 661.5,1306C 658.735,1303.01 657.902,1299.51 659,1295.5C 670.694,1281.98 682.861,1268.98 695.5,1256.5 Z"/></g>
<g><path style="opacity:1" fill="#cacaca" d="M 1156.5,1260.5 C 1173.31,1262.37 1189.98,1265.2 1206.5,1269C 1211.22,1271.44 1212.72,1275.27 1211,1280.5C 1199.85,1293.28 1188.35,1305.78 1176.5,1318C 1172.17,1318.67 1167.83,1318.67 1163.5,1318C 1151.15,1315.66 1138.82,1313.33 1126.5,1311C 1120.88,1308.27 1119.38,1304.1 1122,1298.5C 1133.34,1285.66 1144.84,1273 1156.5,1260.5 Z"/></g>
<g><path style="opacity:1" fill="#cacaca" d="M 792.5,1276.5 C 810.022,1278.71 827.356,1281.88 844.5,1286C 848.256,1290.03 848.422,1294.2 845,1298.5C 833.833,1310.33 822.667,1322.17 811.5,1334C 807.833,1334.67 804.167,1334.67 800.5,1334C 789.531,1331.87 778.531,1329.87 767.5,1328C 757.638,1327.43 754.471,1322.59 758,1313.5C 769.761,1301.24 781.261,1288.91 792.5,1276.5 Z"/></g>
<g><path style="opacity:1" fill="#cacaca" d="M 891.5,1295.5 C 906.816,1298.33 922.149,1301.16 937.5,1304C 943.964,1305.76 946.13,1309.92 944,1316.5C 932.111,1329.05 920.278,1341.55 908.5,1354C 905.5,1354.67 902.5,1354.67 899.5,1354C 885.78,1351.58 872.114,1348.91 858.5,1346C 852.546,1341.7 852.046,1336.86 857,1331.5C 868.395,1319.27 879.895,1307.27 891.5,1295.5 Z"/></g>
<g><path style="opacity:1" fill="#cacaca" d="M 988.5,1315.5 C 1004.84,1318.17 1021.18,1321 1037.5,1324C 1042.07,1326.54 1043.57,1330.37 1042,1335.5C 1030.51,1348.99 1018.34,1361.82 1005.5,1374C 989.431,1372.08 973.431,1369.42 957.5,1366C 951.878,1363.27 950.378,1359.1 953,1353.5C 964.627,1340.53 976.46,1327.86 988.5,1315.5 Z"/></g>
<g><path style="opacity:1" fill="#cacaca" d="M 1085.5,1335.5 C 1102.57,1337.76 1119.57,1340.59 1136.5,1344C 1140.75,1347.42 1141.59,1351.59 1139,1356.5C 1127.44,1368.72 1115.94,1380.89 1104.5,1393C 1087.33,1391.8 1070.33,1389.13 1053.5,1385C 1049.07,1380.87 1048.57,1376.37 1052,1371.5C 1063.37,1359.63 1074.54,1347.63 1085.5,1335.5 Z"/></g>
<g><path style="opacity:0.956" fill="#000000" d="M 3.5,1544.5 C 137.5,1544.5 271.5,1544.5 405.5,1544.5C 405.5,1553.17 405.5,1561.83 405.5,1570.5C 414.167,1570.5 422.833,1570.5 431.5,1570.5C 431.5,1652.5 431.5,1734.5 431.5,1816.5C 393.167,1816.5 354.833,1816.5 316.5,1816.5C 316.5,1747.17 316.5,1677.83 316.5,1608.5C 302.833,1608.5 289.167,1608.5 275.5,1608.5C 275.5,1677.83 275.5,1747.17 275.5,1816.5C 237.167,1816.5 198.833,1816.5 160.5,1816.5C 160.5,1747.17 160.5,1677.83 160.5,1608.5C 146.833,1608.5 133.167,1608.5 119.5,1608.5C 119.5,1677.83 119.5,1747.17 119.5,1816.5C 80.8333,1816.5 42.1667,1816.5 3.5,1816.5C 3.5,1725.83 3.5,1635.17 3.5,1544.5 Z"/></g>
<g><path style="opacity:0.937" fill="#000000" d="M 472.5,1544.5 C 511.167,1544.5 549.833,1544.5 588.5,1544.5C 588.5,1635.17 588.5,1725.83 588.5,1816.5C 549.833,1816.5 511.167,1816.5 472.5,1816.5C 472.5,1725.83 472.5,1635.17 472.5,1544.5 Z"/></g>
<g><path style="opacity:0.951" fill="#000000" d="M 628.5,1544.5 C 710.5,1544.5 792.5,1544.5 874.5,1544.5C 874.5,1553.17 874.5,1561.83 874.5,1570.5C 883.167,1570.5 891.833,1570.5 900.5,1570.5C 900.5,1652.5 900.5,1734.5 900.5,1816.5C 862.167,1816.5 823.833,1816.5 785.5,1816.5C 785.5,1747.17 785.5,1677.83 785.5,1608.5C 771.833,1608.5 758.167,1608.5 744.5,1608.5C 744.5,1677.83 744.5,1747.17 744.5,1816.5C 705.833,1816.5 667.167,1816.5 628.5,1816.5C 628.5,1725.83 628.5,1635.17 628.5,1544.5 Z"/></g>
<g><path style="opacity:0.937" fill="#000000" d="M 941.5,1544.5 C 980.167,1544.5 1018.83,1544.5 1057.5,1544.5C 1057.5,1635.17 1057.5,1725.83 1057.5,1816.5C 1018.83,1816.5 980.167,1816.5 941.5,1816.5C 941.5,1725.83 941.5,1635.17 941.5,1544.5 Z"/></g>
<g><path style="opacity:0.937" fill="#000000" d="M 1097.5,1544.5 C 1188.17,1544.5 1278.83,1544.5 1369.5,1544.5C 1369.5,1565.83 1369.5,1587.17 1369.5,1608.5C 1343.5,1608.5 1317.5,1608.5 1291.5,1608.5C 1291.5,1677.83 1291.5,1747.17 1291.5,1816.5C 1252.83,1816.5 1214.17,1816.5 1175.5,1816.5C 1175.5,1747.17 1175.5,1677.83 1175.5,1608.5C 1149.5,1608.5 1123.5,1608.5 1097.5,1608.5C 1097.5,1587.17 1097.5,1565.83 1097.5,1544.5 Z"/></g>
<g><path style="opacity:0.937" fill="#000000" d="M 1436.5,1544.5 C 1518.5,1544.5 1600.5,1544.5 1682.5,1544.5C 1682.5,1565.83 1682.5,1587.17 1682.5,1608.5C 1630.5,1608.5 1578.5,1608.5 1526.5,1608.5C 1526.5,1621.83 1526.5,1635.17 1526.5,1648.5C 1552.5,1648.5 1578.5,1648.5 1604.5,1648.5C 1604.5,1669.83 1604.5,1691.17 1604.5,1712.5C 1578.5,1712.5 1552.5,1712.5 1526.5,1712.5C 1526.5,1725.83 1526.5,1739.17 1526.5,1752.5C 1578.5,1752.5 1630.5,1752.5 1682.5,1752.5C 1682.5,1773.83 1682.5,1795.17 1682.5,1816.5C 1600.5,1816.5 1518.5,1816.5 1436.5,1816.5C 1436.5,1807.83 1436.5,1799.17 1436.5,1790.5C 1427.83,1790.5 1419.17,1790.5 1410.5,1790.5C 1410.5,1717.17 1410.5,1643.83 1410.5,1570.5C 1419.17,1570.5 1427.83,1570.5 1436.5,1570.5C 1436.5,1561.83 1436.5,1553.17 1436.5,1544.5 Z"/></g>
<g><path style="opacity:0.937" fill="#000000" d="M 1722.5,1544.5 C 1761.17,1544.5 1799.83,1544.5 1838.5,1544.5C 1838.5,1613.83 1838.5,1683.17 1838.5,1752.5C 1890.5,1752.5 1942.5,1752.5 1994.5,1752.5C 1994.5,1773.83 1994.5,1795.17 1994.5,1816.5C 1903.83,1816.5 1813.17,1816.5 1722.5,1816.5C 1722.5,1725.83 1722.5,1635.17 1722.5,1544.5 Z"/></g>
<g><path style="opacity:1" fill="#191919" d="M 14.5,1555.5 C 141.167,1555.5 267.833,1555.5 394.5,1555.5C 394.5,1564.17 394.5,1572.83 394.5,1581.5C 403.167,1581.5 411.833,1581.5 420.5,1581.5C 420.5,1655.83 420.5,1730.17 420.5,1804.5C 389.5,1804.5 358.5,1804.5 327.5,1804.5C 327.5,1735.5 327.5,1666.5 327.5,1597.5C 306.5,1597.5 285.5,1597.5 264.5,1597.5C 264.5,1666.5 264.5,1735.5 264.5,1804.5C 233.5,1804.5 202.5,1804.5 171.5,1804.5C 171.5,1735.17 171.5,1665.83 171.5,1596.5C 150.5,1596.5 129.5,1596.5 108.5,1596.5C 108.5,1666.17 108.5,1735.83 108.5,1805.5C 77.1667,1805.5 45.8333,1805.5 14.5,1805.5C 14.5,1722.17 14.5,1638.83 14.5,1555.5 Z"/></g>
<g><path style="opacity:1" fill="#191919" d="M 483.5,1555.5 C 514.833,1555.5 546.167,1555.5 577.5,1555.5C 577.5,1638.83 577.5,1722.17 577.5,1805.5C 546.167,1805.5 514.833,1805.5 483.5,1805.5C 483.5,1722.17 483.5,1638.83 483.5,1555.5 Z"/></g>
<g><path style="opacity:1" fill="#191919" d="M 639.5,1555.5 C 714.167,1555.5 788.833,1555.5 863.5,1555.5C 863.5,1564.17 863.5,1572.83 863.5,1581.5C 872.167,1581.5 880.833,1581.5 889.5,1581.5C 889.5,1655.83 889.5,1730.17 889.5,1804.5C 858.5,1804.5 827.5,1804.5 796.5,1804.5C 796.5,1735.17 796.5,1665.83 796.5,1596.5C 775.5,1596.5 754.5,1596.5 733.5,1596.5C 733.5,1666.17 733.5,1735.83 733.5,1805.5C 702.167,1805.5 670.833,1805.5 639.5,1805.5C 639.5,1722.17 639.5,1638.83 639.5,1555.5 Z"/></g>
<g><path style="opacity:1" fill="#191919" d="M 952.5,1555.5 C 983.833,1555.5 1015.17,1555.5 1046.5,1555.5C 1046.5,1638.83 1046.5,1722.17 1046.5,1805.5C 1015.17,1805.5 983.833,1805.5 952.5,1805.5C 952.5,1722.17 952.5,1638.83 952.5,1555.5 Z"/></g>
<g><path style="opacity:1" fill="#191919" d="M 1108.5,1555.5 C 1191.83,1555.5 1275.17,1555.5 1358.5,1555.5C 1358.5,1569.5 1358.5,1583.5 1358.5,1597.5C 1332.5,1597.5 1306.5,1597.5 1280.5,1597.5C 1280.5,1666.83 1280.5,1736.17 1280.5,1805.5C 1249.17,1805.5 1217.83,1805.5 1186.5,1805.5C 1186.5,1736.17 1186.5,1666.83 1186.5,1597.5C 1160.5,1597.5 1134.5,1597.5 1108.5,1597.5C 1108.5,1583.5 1108.5,1569.5 1108.5,1555.5 Z"/></g>
<g><path style="opacity:1" fill="#191919" d="M 1447.5,1555.5 C 1522.17,1555.5 1596.83,1555.5 1671.5,1555.5C 1671.5,1569.5 1671.5,1583.5 1671.5,1597.5C 1619.5,1597.5 1567.5,1597.5 1515.5,1597.5C 1515.5,1618.17 1515.5,1638.83 1515.5,1659.5C 1541.5,1659.5 1567.5,1659.5 1593.5,1659.5C 1593.5,1673.5 1593.5,1687.5 1593.5,1701.5C 1567.5,1701.5 1541.5,1701.5 1515.5,1701.5C 1515.5,1722.17 1515.5,1742.83 1515.5,1763.5C 1567.5,1763.5 1619.5,1763.5 1671.5,1763.5C 1671.5,1777.5 1671.5,1791.5 1671.5,1805.5C 1596.83,1805.5 1522.17,1805.5 1447.5,1805.5C 1447.5,1796.83 1447.5,1788.17 1447.5,1779.5C 1438.83,1779.5 1430.17,1779.5 1421.5,1779.5C 1421.5,1713.5 1421.5,1647.5 1421.5,1581.5C 1430.17,1581.5 1438.83,1581.5 1447.5,1581.5C 1447.5,1572.83 1447.5,1564.17 1447.5,1555.5 Z"/></g>
<g><path style="opacity:1" fill="#191919" d="M 1733.5,1555.5 C 1764.83,1555.5 1796.17,1555.5 1827.5,1555.5C 1827.5,1624.83 1827.5,1694.17 1827.5,1763.5C 1879.5,1763.5 1931.5,1763.5 1983.5,1763.5C 1983.5,1777.5 1983.5,1791.5 1983.5,1805.5C 1900.17,1805.5 1816.83,1805.5 1733.5,1805.5C 1733.5,1722.17 1733.5,1638.83 1733.5,1555.5 Z"/></g>
</svg>
